<?xml version="1.0" encoding="utf-8"?>
<!-- Generator: Adobe Illustrator 17.0.0, SVG Export Plug-In . SVG Version: 6.00 Build 0)  -->
<!DOCTYPE svg PUBLIC "-//W3C//DTD SVG 1.1//EN" "http://www.w3.org/Graphics/SVG/1.1/DTD/svg11.dtd">
<svg version="1.1" xmlns="http://www.w3.org/2000/svg" xmlns:xlink="http://www.w3.org/1999/xlink" x="0px" y="0px"
	 width="47.685px" height="49.992px" viewBox="0 0 47.685 49.992" enable-background="new 0 0 47.685 49.992" xml:space="preserve">
<g id="Layer_1">
</g>
<g id="Layer_2">
	<g>
		<g opacity="0.3">
			<linearGradient id="SVGID_1_" gradientUnits="userSpaceOnUse" x1="2.496" y1="24.9885" x2="45.163" y2="24.9885">
				<stop  offset="0" style="stop-color:#EF393C"/>
				<stop  offset="0.3058" style="stop-color:#F15F2D"/>
				<stop  offset="0.5" style="stop-color:#F36F24"/>
				<stop  offset="0.6119" style="stop-color:#F5822C"/>
				<stop  offset="0.7685" style="stop-color:#F89637"/>
				<stop  offset="0.9033" style="stop-color:#FAA43F"/>
				<stop  offset="1" style="stop-color:#FAA843"/>
			</linearGradient>
			<path fill="url(#SVGID_1_)" d="M42.94,8.023c-3.497-5.135-10.328-6.984-15.936-4.311c-2.588,1.234-4.546,3.196-5.774,5.506
				c-1.111,2.088-3.28,3.345-5.644,3.272c-2.615-0.082-5.291,0.642-7.647,2.275C2.832,18.302,1.042,25.149,3.76,30.735
				c2.315,4.758,7.107,7.361,11.96,7.168c2.265-0.09,4.354,1.109,5.463,3.087c0.156,0.279,0.324,0.554,0.504,0.826
				c3.505,5.288,10.508,7.182,16.197,4.372c6.665-3.292,9.059-11.465,5.393-17.789c-0.026-0.045-0.052-0.09-0.079-0.134
				c-1.181-1.982-1.13-4.43,0.077-6.395C45.798,17.765,45.896,12.363,42.94,8.023z"/>
		</g>
		<g>
			<linearGradient id="SVGID_2_" gradientUnits="userSpaceOnUse" x1="11.1152" y1="42.601" x2="46.2468" y2="7.4693">
				<stop  offset="0" style="stop-color:#EF393C"/>
				<stop  offset="0.3058" style="stop-color:#F15F2D"/>
				<stop  offset="0.5" style="stop-color:#F36F24"/>
				<stop  offset="0.6119" style="stop-color:#F5822C"/>
				<stop  offset="0.7685" style="stop-color:#F89637"/>
				<stop  offset="0.9033" style="stop-color:#FAA43F"/>
				<stop  offset="1" style="stop-color:#FAA843"/>
			</linearGradient>
			<path fill="none" stroke="url(#SVGID_2_)" stroke-width="5" stroke-miterlimit="10" d="M42.974,8.049
				C39.486,2.908,32.658,1.046,27.046,3.71c-2.59,1.229-4.551,3.188-5.784,5.496c-1.114,2.086-3.286,3.34-5.649,3.262
				c-2.615-0.086-5.292,0.633-7.651,2.261c-5.113,3.529-6.915,10.373-4.207,15.964c2.307,4.762,7.094,7.373,11.948,7.189
				c2.266-0.086,4.352,1.117,5.457,3.097c0.156,0.279,0.323,0.555,0.503,0.827c3.496,5.294,10.496,7.2,16.189,4.401
				c6.671-3.28,9.079-11.449,5.424-17.78c-0.026-0.045-0.052-0.09-0.079-0.134c-1.177-1.984-1.123-4.432,0.089-6.395
				C45.815,17.796,45.923,12.394,42.974,8.049z"/>
		</g>
	</g>
</g>
</svg>
