<?xml version="1.0" encoding="utf-8"?>
<!-- Generator: Adobe Illustrator 17.0.0, SVG Export Plug-In . SVG Version: 6.00 Build 0)  -->
<!DOCTYPE svg PUBLIC "-//W3C//DTD SVG 1.1//EN" "http://www.w3.org/Graphics/SVG/1.1/DTD/svg11.dtd">
<svg version="1.1" xmlns="http://www.w3.org/2000/svg" xmlns:xlink="http://www.w3.org/1999/xlink" x="0px" y="0px"
	 width="53.242px" height="45px" viewBox="0 0 53.242 45" enable-background="new 0 0 53.242 45" xml:space="preserve">
<g id="Layer_1">
</g>
<g id="Layer_2">
	<g>
		<g opacity="0.3">
			<linearGradient id="SVGID_1_" gradientUnits="userSpaceOnUse" x1="2.5" y1="22.5" x2="50.7421" y2="22.5">
				<stop  offset="0" style="stop-color:#D61E38"/>
				<stop  offset="0.0425" style="stop-color:#D92A36"/>
				<stop  offset="0.3486" style="stop-color:#EA5E2B"/>
				<stop  offset="0.5" style="stop-color:#F36F24"/>
				<stop  offset="0.6119" style="stop-color:#F5822C"/>
				<stop  offset="0.7685" style="stop-color:#F89637"/>
				<stop  offset="0.9033" style="stop-color:#FAA43F"/>
				<stop  offset="1" style="stop-color:#FAA843"/>
			</linearGradient>
			<path fill="url(#SVGID_1_)" d="M30.229,3.872c-2.922,1.389-5.135,3.601-6.526,6.206c-1.246,2.332-3.742,3.773-6.385,3.686
				c-2.951-0.097-5.973,0.713-8.637,2.548c-5.798,3.995-7.834,11.763-4.746,18.09c3.694,7.57,12.946,10.309,20.115,6.17
				c2.379-1.373,4.215-3.324,5.435-5.573c1.294-2.385,3.812-3.839,6.525-3.767c2.558,0.067,5.165-0.547,7.544-1.92
				c7.168-4.139,9.422-13.52,4.714-20.504C44.333,2.969,36.588,0.848,30.229,3.872z"/>
		</g>
		<g>
			
				<linearGradient id="SVGID_2_" gradientUnits="userSpaceOnUse" x1="-77.236" y1="-126.4269" x2="-23.6253" y2="-140.7919" gradientTransform="matrix(0.866 -0.5 0.5 0.866 137.0954 112.9905)">
				<stop  offset="0" style="stop-color:#D61E38"/>
				<stop  offset="0.0425" style="stop-color:#D92A36"/>
				<stop  offset="0.3486" style="stop-color:#EA5E2B"/>
				<stop  offset="0.5" style="stop-color:#F36F24"/>
				<stop  offset="0.6119" style="stop-color:#F5822C"/>
				<stop  offset="0.7685" style="stop-color:#F89637"/>
				<stop  offset="0.9033" style="stop-color:#FAA43F"/>
				<stop  offset="1" style="stop-color:#FAA843"/>
			</linearGradient>
			<path fill="none" stroke="url(#SVGID_2_)" stroke-width="5" stroke-miterlimit="10" d="M30.229,3.872
				c-2.922,1.389-5.135,3.601-6.526,6.206c-1.246,2.332-3.742,3.773-6.385,3.686c-2.951-0.097-5.973,0.713-8.637,2.548
				c-5.798,3.995-7.834,11.763-4.746,18.09c3.694,7.57,12.946,10.309,20.115,6.17c2.379-1.373,4.215-3.324,5.435-5.573
				c1.294-2.385,3.812-3.839,6.525-3.767c2.558,0.067,5.165-0.547,7.544-1.92c7.168-4.139,9.422-13.52,4.714-20.504
				C44.333,2.969,36.588,0.848,30.229,3.872z"/>
		</g>
	</g>
</g>
</svg>
